<svg xmlns="http://www.w3.org/2000/svg" viewBox="0 0 512 512">
  <defs>
    <linearGradient id="bg" x1="0" y1="0" x2="1" y2="1">
      <stop offset="0" stop-color="#1e293b"/>
      <stop offset="1" stop-color="#0b0d12"/>
    </linearGradient>
  </defs>
  <rect width="512" height="512" rx="112" fill="url(#bg)"/>
  <circle cx="256" cy="230" r="170" fill="#3b9ee6" opacity="0.18"/>
  <rect x="150" y="226" width="212" height="170" fill="#f8fafc" stroke="#0f172a" stroke-width="14"/>
  <path d="M112 240 L256 118 L400 240 Z" fill="#38bdf8" stroke="#0f172a" stroke-width="14" stroke-linejoin="round"/>
  <path d="M226 396 V320 a30 30 0 0 1 60 0 V396 Z" fill="#fb7185" stroke="#0f172a" stroke-width="12"/>
  <rect x="172" y="262" width="46" height="42" rx="4" fill="#bae6fd" stroke="#0f172a" stroke-width="10"/>
  <rect x="294" y="262" width="46" height="42" rx="4" fill="#bae6fd" stroke="#0f172a" stroke-width="10"/>
  <path d="M392 120 q4 26 30 30 q-26 4 -30 30 q-4 -26 -30 -30 q26 -4 30 -30z" fill="#fde68a"/>
  <path d="M110 150 q3 18 21 21 q-18 3 -21 21 q-3 -18 -21 -21 q18 -3 21 -21z" fill="#fde68a"/>
</svg>
